HIERARCHY
ROOT mixamorig:Hips
{
  OFFSET 0.000000 0.000000 0.000000
  CHANNELS 6 Xposition Yposition Zposition Xrotation Yrotation Zrotation
  JOINT mixamorig:Spine
  {
    OFFSET 1.719088 25.168327 -4.215464
    CHANNELS 3 Xrotation Yrotation Zrotation
    JOINT mixamorig:Spine2
    {
      OFFSET 1.719088 25.168327 -4.215464
      CHANNELS 3 Xrotation Yrotation Zrotation
      JOINT mixamorig:Neck
      {
        OFFSET 0.000000 4.406908 0.000000
        CHANNELS 3 Xrotation Yrotation Zrotation
        JOINT mixamorig:Head
        {
          OFFSET 0.000000 5.131571 0.000000
          CHANNELS 3 Xrotation Yrotation Zrotation
          End Site
          {
            OFFSET 0.000000 1.539471 0.000000
          }
        }
      }
      JOINT mixamorig:LeftShoulder
      {
        OFFSET 16.992445 2.816427 -1.180073
        CHANNELS 3 Xrotation Yrotation Zrotation
        JOINT mixamorig:LeftArm
        {
          OFFSET 18.068965 -3.121954 -11.587926
          CHANNELS 3 Xrotation Yrotation Zrotation
          JOINT mixamorig:LeftForeArm
          {
            OFFSET -5.408186 3.708938 -12.576431
            CHANNELS 3 Xrotation Yrotation Zrotation
            JOINT mixamorig:LeftHand
            {
              OFFSET -4.000407 1.106506 -1.590694
              CHANNELS 3 Xrotation Yrotation Zrotation
              End Site
              {
                OFFSET -1.200122 0.331952 -0.477208
              }
            }
          }
        }
      }
      JOINT mixamorig:RightShoulder
      {
        OFFSET -16.992445 2.816427 1.180073
        CHANNELS 3 Xrotation Yrotation Zrotation
        JOINT mixamorig:RightArm
        {
          OFFSET -17.304324 -8.555022 -19.418815
          CHANNELS 3 Xrotation Yrotation Zrotation
          JOINT mixamorig:RightForeArm
          {
            OFFSET 6.382291 6.914577 -18.508580
            CHANNELS 3 Xrotation Yrotation Zrotation
            JOINT mixamorig:RightHand
            {
              OFFSET 5.389738 2.442453 -3.552078
              CHANNELS 3 Xrotation Yrotation Zrotation
              End Site
              {
                OFFSET 1.616921 0.732736 -1.065623
              }
            }
          }
        }
      }
    }
  }
  JOINT mixamorig:LeftUpLeg
  {
    OFFSET 9.167292 0.244222 2.969378
    CHANNELS 3 Xrotation Yrotation Zrotation
    JOINT mixamorig:LeftLeg
    {
      OFFSET 0.950825 -44.361071 -2.100328
      CHANNELS 3 Xrotation Yrotation Zrotation
      JOINT mixamorig:LeftFoot
      {
        OFFSET -0.880896 -36.612737 19.559270
        CHANNELS 3 Xrotation Yrotation Zrotation
        JOINT mixamorig:LeftToeBase
        {
          OFFSET 3.220046 -3.157198 -4.466946
          CHANNELS 3 Xrotation Yrotation Zrotation
          End Site
          {
            OFFSET 0.966014 -0.947160 -1.340084
          }
        }
      }
    }
  }
  JOINT mixamorig:RightUpLeg
  {
    OFFSET -9.167292 -0.244222 -2.969378
    CHANNELS 3 Xrotation Yrotation Zrotation
    JOINT mixamorig:RightLeg
    {
      OFFSET 3.688810 -35.639201 3.437236
      CHANNELS 3 Xrotation Yrotation Zrotation
      JOINT mixamorig:RightFoot
      {
        OFFSET -4.221295 -41.549927 18.088705
        CHANNELS 3 Xrotation Yrotation Zrotation
        JOINT mixamorig:RightToeBase
        {
          OFFSET -4.472390 -1.075068 -9.863885
          CHANNELS 3 Xrotation Yrotation Zrotation
          End Site
          {
            OFFSET -1.341717 -0.322520 -2.959165
          }
        }
      }
    }
  }
}
MOTION
Frames: 9
Frame Time: 0.083333
0.095837 0.271542 0.054812 5.908101 -0.399985 -0.030593 -0.000000 0.000000 0.000000 -9.036953 7.145453 0.160111 -21.369577 -5.345962 -9.585986 -19.787337 -9.132898 -8.016704 10.857681 -14.165951 16.080544 44.814438 11.783636 6.236307 -26.267458 18.932827 -37.950520 0.000000 0.000000 0.000000 4.460850 14.538876 -15.288645 55.288253 -2.445611 4.233247 -29.461047 -16.673288 28.255379 0.000000 0.000000 0.000000 -5.911481 0.401522 -0.233449 0.178832 0.200201 0.757686 -0.349951 0.165304 -0.804735 0.000000 0.000000 0.000000 -5.750888 0.391208 -0.007898 0.568967 -0.011436 0.272469 -1.272217 0.885735 -0.007042 0.000000 0.000000 0.000000
0.094215 0.272030 0.031390 5.924509 -0.400026 -0.013496 -0.000000 0.000000 0.000000 -9.075897 6.631808 0.101169 -21.292924 -4.895169 -9.486631 -19.856148 -8.624108 -8.099959 10.734485 -13.092804 15.610267 38.945761 8.059570 6.230213 -21.213409 17.999897 -33.851936 0.000000 0.000000 0.000000 5.360066 12.523357 -13.945608 46.489568 -1.636053 5.356713 -25.281890 -13.319693 23.643206 0.000000 0.000000 0.000000 -5.919766 0.399876 -0.233165 0.142254 0.198024 0.760173 -0.274426 0.165172 -0.765066 0.000000 0.000000 0.000000 -5.648996 0.404309 0.012410 0.257313 -0.017701 0.229668 -0.978324 0.767117 -0.015215 0.000000 0.000000 0.000000
0.090786 0.273333 -0.002007 15.255461 -1.021328 0.053439 -0.000000 0.000000 0.000000 -8.818117 10.872271 -0.833512 -26.521707 -7.927062 -10.383720 -23.896919 -13.053306 -7.629164 14.987816 -28.102366 43.967170 92.871148 12.487399 13.065953 -47.808673 44.412060 -81.567489 0.000000 0.000000 0.000000 -2.483124 38.260883 -45.442808 91.491960 1.186253 7.719675 -55.760120 -27.062196 50.641102 0.000000 0.000000 0.000000 -15.374943 1.023868 -0.747124 0.505284 0.549113 2.124836 -0.473031 0.661166 -2.048304 0.000000 0.000000 0.000000 -14.144352 1.076429 -0.017682 -0.131725 -0.065588 0.553523 -2.038743 1.748876 -0.025086 0.000000 0.000000 0.000000
0.088139 0.274510 -0.013764 14.987158 -0.976767 0.297766 0.000000 0.000000 0.000000 -7.984472 12.271337 -0.958877 -25.402218 -8.461636 -10.665282 -22.129567 -13.724774 -7.558128 21.187871 -33.688103 58.288151 87.387252 -2.809218 2.506201 -42.016947 40.484630 -76.031220 0.000000 0.000000 0.000000 -12.519013 44.594148 -83.109815 24.139354 17.049133 -17.767426 -37.801513 -13.798418 31.208823 0.000000 0.000000 0.000000 -15.595350 0.995732 -1.250876 1.119395 0.686725 2.671870 0.070787 1.477020 -2.440658 0.000000 0.000000 0.000000 -12.924475 1.136892 -0.265999 -1.754325 -0.111477 0.571829 -1.418076 1.372058 0.054723 0.000000 0.000000 0.000000
0.084629 0.274797 -0.005208 1.690421 -0.052030 0.434431 0.000000 0.000000 0.000000 -5.379226 11.841944 0.656419 -14.382088 -8.340093 -9.172733 -10.794205 -11.849068 -6.098738 26.531929 -29.464190 48.120134 54.088008 -3.311855 -24.022190 -37.970769 7.197212 -38.600241 0.000000 0.000000 0.000000 -17.736305 34.655900 -99.359680 -55.329514 25.512357 -53.686122 -7.512133 -0.968713 3.486521 0.000000 0.000000 0.000000 -2.968141 0.089557 -1.263321 1.946783 0.439459 1.644876 0.294811 2.409830 -2.027842 0.000000 0.000000 0.000000 -0.099431 0.168817 -1.159073 -1.420447 -0.052720 0.994397 -1.875568 0.295623 0.485571 0.000000 0.000000 0.000000
0.080888 0.273861 0.019328 -5.096011 0.419595 0.231681 0.000000 0.000000 0.000000 -3.682896 5.594662 1.929879 -6.098231 -5.115312 -5.388333 -4.404161 -6.375786 -4.060698 26.368080 -12.983997 31.561944 23.224498 -2.511032 -28.623395 -22.624979 -5.605451 -21.190505 0.000000 0.000000 0.000000 26.935104 6.466510 -13.508495 11.454535 -8.606181 27.650649 -17.271340 6.673121 1.939076 0.000000 0.000000 0.000000 4.103169 -0.467983 -0.342576 1.710035 0.116764 0.386364 -1.446934 3.503812 -3.225054 0.000000 0.000000 0.000000 6.352536 -0.549090 -3.198784 -1.293258 -0.019708 3.228034 -3.547568 -0.230910 1.509881 0.000000 0.000000 0.000000
0.078466 0.272418 0.055491 -11.162883 0.944711 0.625602 0.000000 0.000000 0.000000 -8.600100 13.757097 4.411020 -14.861495 -12.309082 -12.761544 -10.680122 -15.415377 -9.442519 60.348076 -31.663269 73.660255 52.979076 -7.291317 -70.749737 -49.867304 -16.284347 -50.778610 0.000000 0.000000 0.000000 61.268810 13.830164 -30.773031 25.714369 -15.618909 67.941645 -38.188471 20.149279 3.207673 0.000000 0.000000 0.000000 8.987249 -1.062582 -0.853371 4.064537 0.281355 0.895894 -4.780237 9.474066 -9.413682 0.000000 0.000000 0.000000 14.570482 -1.292887 -9.449422 -3.060466 -0.487531 8.591139 -8.153398 1.882503 3.806258 0.000000 0.000000 0.000000
0.079474 0.270617 0.086176 -8.793704 0.830932 0.900980 0.000000 0.000000 0.000000 -8.461314 15.580612 3.985901 -16.458269 -13.167898 -13.237441 -11.615905 -16.744526 -9.312398 54.557298 -35.797743 70.943567 47.088415 -14.913570 -86.118969 -39.488503 -25.877498 -46.557000 0.000000 0.000000 0.000000 53.271738 11.916143 -28.527640 23.585418 -1.675076 79.541619 -29.840599 31.031786 -4.025252 0.000000 0.000000 0.000000 7.036146 -0.959388 -1.059211 4.438243 0.302403 0.895259 -8.688666 13.841842 -14.997556 0.000000 0.000000 0.000000 13.616352 -1.300276 -15.634966 -2.370347 -2.088191 10.892222 -7.829044 9.485486 5.455876 0.000000 0.000000 0.000000
0.082721 0.267189 0.109886 -6.878413 0.765642 1.277566 0.000000 0.000000 0.000000 -8.367203 16.805562 3.324093 -17.655647 -13.689101 -14.145618 -12.136483 -17.759115 -9.753811 44.964946 -41.709623 62.791890 39.607740 -32.193970 -114.726197 -28.558985 -34.546086 -20.174341 0.000000 0.000000 0.000000 38.935237 16.696096 -28.008497 26.031275 11.792837 97.937576 -19.489188 31.282741 -20.091253 0.000000 0.000000 0.000000 5.242278 -0.899378 -1.346140 5.393243 0.239467 0.725355 -11.095704 19.443329 -19.603019 0.000000 0.000000 0.000000 12.865073 -1.344351 -22.117935 0.792565 -4.147802 10.290994 -8.297954 15.812561 10.041892 0.000000 0.000000 0.000000
